<?xml version="1.0" encoding="UTF-8"?>
<svg xmlns="http://www.w3.org/2000/svg" height="24px" width="24px">
  <defs>
    <style>
      .cls-1 {
        fill: none;
        stroke: #e3e3e3;
        stroke-linecap: round;
        stroke-linejoin: round;
        stroke-width: .8px;
      }
    </style>
  </defs>
  <!-- Generator: Adobe Illustrator 28.7.7, SVG Export Plug-In . SVG Version: 1.2.0 Build 194)  -->
  <g>
    <g id="Capa_1">
      <polygon class="cls-1" points="12 22.2 3.3 17.7 3.3 11.4 10 15 12 12.4 12 22.2"/>
      <polygon class="cls-1" points="10 15 1.3 10.3 3.3 7.9 12 12.4 10 15"/>
      <polygon class="cls-1" points="12 22.2 20.8 17.7 20.8 11.4 14 15 12 12.4 12 22.2"/>
      <polygon class="cls-1" points="14 15 22.7 10.3 20.8 7.9 12 12.4 14 15"/>
      <polygon class="cls-1" points="12 3.7 20.8 7.9 22.5 7.4 14.1 3.5 12 3.7"/>
      <polygon class="cls-1" points="12 3.7 3.3 7.9 1.4 7.4 9.8 3.5 12 3.7"/>
      <polygon class="cls-1" points="12 12.5 3.3 7.9 12 3.7 20.8 7.9 12 12.5"/>
    </g>
  </g>
</svg>